<svg width="33" height="34" viewBox="0 0 33 34" fill="none" xmlns="http://www.w3.org/2000/svg">
<path d="M23.375 2.83334H9.625C5.82804 2.83334 2.75 6.00466 2.75 9.91668V24.0833C2.75 27.9954 5.82804 31.1667 9.625 31.1667H23.375C27.172 31.1667 30.25 27.9954 30.25 24.0833V9.91668C30.25 6.00466 27.172 2.83334 23.375 2.83334Z" stroke="#DCFFD8" stroke-width="2" stroke-linecap="round" stroke-linejoin="round"/>
<path d="M22 16.1075C22.1697 17.2865 21.9742 18.4906 21.4414 19.5486C20.9086 20.6066 20.0655 21.4645 19.0322 22.0004C17.9989 22.5362 16.8278 22.7228 15.6857 22.5334C14.5435 22.344 13.4884 21.7885 12.6704 20.9456C11.8523 20.1028 11.3131 19.0157 11.1293 17.839C10.9455 16.6622 11.1266 15.4557 11.6467 14.391C12.1668 13.3264 12.9995 12.4578 14.0263 11.9088C15.0532 11.3599 16.2219 11.1585 17.3662 11.3333C18.5335 11.5117 19.6141 12.0721 20.4485 12.9318C21.283 13.7915 21.8269 14.9049 22 16.1075Z" stroke="#DCFFD8" stroke-width="2" stroke-linecap="round" stroke-linejoin="round"/>
<path d="M24.0625 9.20834H24.0763" stroke="#DCFFD8" stroke-width="2" stroke-linecap="round" stroke-linejoin="round"/>
</svg>
