<svg width="33" height="34" viewBox="0 0 33 34" fill="none" xmlns="http://www.w3.org/2000/svg">
<path d="M23.375 2.83333H9.625C5.82804 2.83333 2.75 6.00465 2.75 9.91667V24.0833C2.75 27.9954 5.82804 31.1667 9.625 31.1667H23.375C27.172 31.1667 30.25 27.9954 30.25 24.0833V9.91667C30.25 6.00465 27.172 2.83333 23.375 2.83333Z" stroke="#DCFFD8" stroke-width="2" stroke-linecap="round" stroke-linejoin="round"/>
<path d="M22.0001 16.1075C22.1698 17.2865 21.9743 18.4906 21.4415 19.5486C20.9087 20.6066 20.0657 21.4645 19.0323 22.0004C17.999 22.5362 16.828 22.7228 15.6858 22.5334C14.5436 22.344 13.4885 21.7885 12.6705 20.9456C11.8525 20.1028 11.3132 19.0157 11.1294 17.839C10.9456 16.6622 11.1267 15.4557 11.6468 14.391C12.1669 13.3264 12.9996 12.4578 14.0264 11.9088C15.0533 11.3599 16.222 11.1585 17.3663 11.3333C18.5336 11.5117 19.6143 12.0721 20.4487 12.9318C21.2831 13.7915 21.827 14.9049 22.0001 16.1075Z" stroke="#DCFFD8" stroke-width="2" stroke-linecap="round" stroke-linejoin="round"/>
<path d="M24.0625 9.20833H24.0763" stroke="#DCFFD8" stroke-width="2" stroke-linecap="round" stroke-linejoin="round"/>
</svg>
