<svg width="36" height="36" viewBox="0 0 36 36" fill="none" xmlns="http://www.w3.org/2000/svg">
<path d="M30.375 29.25H5.625C4.72989 29.25 3.87145 28.8944 3.23851 28.2615C2.60558 27.6286 2.25 26.7701 2.25 25.875V10.125C2.25 9.22989 2.60558 8.37145 3.23851 7.73851C3.87145 7.10558 4.72989 6.75 5.625 6.75H30.375C31.2701 6.75 32.1286 7.10558 32.7615 7.73851C33.3944 8.37145 33.75 9.22989 33.75 10.125V25.875C33.75 26.7701 33.3944 27.6286 32.7615 28.2615C32.1286 28.8944 31.2701 29.25 30.375 29.25ZM5.625 9C5.32663 9 5.04048 9.11853 4.82951 9.32951C4.61853 9.54048 4.5 9.82663 4.5 10.125V25.875C4.5 26.1734 4.61853 26.4595 4.82951 26.6705C5.04048 26.8815 5.32663 27 5.625 27H30.375C30.6734 27 30.9595 26.8815 31.1705 26.6705C31.3815 26.4595 31.5 26.1734 31.5 25.875V10.125C31.5 9.82663 31.3815 9.54048 31.1705 9.32951C30.9595 9.11853 30.6734 9 30.375 9H5.625Z" fill="#3A8532"/>
<path d="M18 19.125C17.7794 19.1233 17.5642 19.0568 17.3812 18.9337L3.8812 9.93374C3.6629 9.7579 3.51811 9.5069 3.47519 9.2299C3.43226 8.9529 3.49429 8.66985 3.64913 8.43619C3.80396 8.20253 4.04045 8.03509 4.31228 7.96666C4.5841 7.89823 4.87169 7.93374 5.1187 8.06624L18.6187 17.0662C18.8182 17.2003 18.9695 17.3947 19.0505 17.621C19.1315 17.8473 19.1378 18.0936 19.0687 18.3238C18.9995 18.554 18.8584 18.756 18.6661 18.9002C18.4737 19.0443 18.2403 19.1231 18 19.125V19.125Z" fill="#3A8532"/>
<path d="M17.9996 19.125C17.7583 19.1255 17.5232 19.0485 17.329 18.9052C17.1349 18.7619 16.9919 18.5599 16.9213 18.3292C16.8507 18.0984 16.8562 17.8511 16.9369 17.6237C17.0176 17.3963 17.1693 17.2008 17.3696 17.0662L30.8696 8.06624C31.1171 7.9199 31.4113 7.87391 31.6917 7.93771C31.9721 8.00152 32.2174 8.17028 32.3773 8.40933C32.5371 8.64838 32.5994 8.93957 32.5512 9.22308C32.5031 9.50659 32.3482 9.76089 32.1183 9.93374L18.6183 18.9337C18.4353 19.0568 18.2201 19.1233 17.9996 19.125Z" fill="#3A8532"/>
</svg>
